<svg xmlns="http://www.w3.org/2000/svg" xmlns:xlink="http://www.w3.org/1999/xlink" viewBox="0 0 94.82 190.04"><defs><style>.cls-1{fill:#fbc0a4;}.cls-2{fill:#f8e8d8;}.cls-3{fill:#f69d7d;}.cls-4{fill:#3e3533;}.cls-5{fill:url(#linear-gradient);}.cls-6{fill:#302624;}.cls-7{fill:#330e00;}.cls-8{fill:url(#linear-gradient-2);}.cls-9{fill:url(#linear-gradient-3);}.cls-10{fill:#f84511;}.cls-11{fill:#cb4453;}.cls-12{fill:#cfd4d8;}.cls-13{fill:url(#radial-gradient);}.cls-14{fill:url(#radial-gradient-2);}.cls-15{fill:url(#linear-gradient-4);}.cls-16{fill:url(#linear-gradient-5);}.cls-17{fill:url(#linear-gradient-6);}.cls-18{fill:url(#linear-gradient-7);}</style><linearGradient id="linear-gradient" x1="59.22" y1="65.79" x2="62.93" y2="63.24" gradientUnits="userSpaceOnUse"><stop offset="0" stop-color="#302624" stop-opacity="0.5"/><stop offset="0.24" stop-color="#302624" stop-opacity="0.36"/><stop offset="0.99" stop-color="#302624" stop-opacity="0"/></linearGradient><linearGradient id="linear-gradient-2" x1="38.4" y1="63.6" x2="40.63" y2="89.42" xlink:href="#linear-gradient"/><linearGradient id="linear-gradient-3" x1="39.9" y1="46.76" x2="49.86" y2="73.96" gradientUnits="userSpaceOnUse"><stop offset="0" stop-color="#cfd4d8"/><stop offset="0.33" stop-color="#cfd4d8" stop-opacity="0.63"/><stop offset="0.65" stop-color="#cfd4d8" stop-opacity="0.29"/><stop offset="0.88" stop-color="#cfd4d8" stop-opacity="0.08"/><stop offset="1" stop-color="#cfd4d8" stop-opacity="0"/></linearGradient><radialGradient id="radial-gradient" cx="-2710.49" cy="132.17" r="2.76" gradientTransform="matrix(-1, 0.05, 0.05, 1, -2682.5, 19.69)" gradientUnits="userSpaceOnUse"><stop offset="0" stop-color="#f69d7d" stop-opacity="0.7"/><stop offset="0.14" stop-color="#f69d7d" stop-opacity="0.63"/><stop offset="0.42" stop-color="#f69d7d" stop-opacity="0.44"/><stop offset="0.81" stop-color="#f69d7d" stop-opacity="0.15"/><stop offset="1" stop-color="#f69d7d" stop-opacity="0"/></radialGradient><radialGradient id="radial-gradient-2" cx="-2722.97" cy="132.17" r="2.76" xlink:href="#radial-gradient"/><linearGradient id="linear-gradient-4" x1="-2607.05" y1="25.12" x2="-2604.99" y2="23.97" gradientTransform="matrix(-1, 0, 0, 1, -2582.54, 0)" gradientUnits="userSpaceOnUse"><stop offset="0" stop-color="#f69d7d"/><stop offset="0.23" stop-color="#f69d7d" stop-opacity="0.93"/><stop offset="0.68" stop-color="#f69d7d" stop-opacity="0.75"/><stop offset="1" stop-color="#f69d7d" stop-opacity="0.6"/></linearGradient><linearGradient id="linear-gradient-5" x1="-2301.36" y1="126.6" x2="-2302.47" y2="182.97" gradientTransform="matrix(-1, 0, 0, 1, -2247.56, 0)" xlink:href="#linear-gradient"/><linearGradient id="linear-gradient-6" x1="-2280.12" y1="127.02" x2="-2281.24" y2="183.39" gradientTransform="matrix(-1, 0, 0, 1, -2247.56, 0)" xlink:href="#linear-gradient"/><linearGradient id="linear-gradient-7" x1="35.24" y1="14.28" x2="33.52" y2="5.84" gradientUnits="userSpaceOnUse"><stop offset="0" stop-color="#f8e8d8" stop-opacity="0.2"/><stop offset="0.41" stop-color="#f8e8d8" stop-opacity="0.13"/><stop offset="1" stop-color="#f8e8d8" stop-opacity="0"/></linearGradient></defs><g id="Layer_2" data-name="Layer 2"><g id="OBJECTS"><path class="cls-1" d="M82.1,60.2A10.29,10.29,0,0,1,84,57.76c.89-.65,2.32-.52,3.43-1.74s2.84,0,2.87-2.33-1-1.7.19-2.79-1-2.95-1-2.95,5.9-2.71,5.31-4-5.07,1.63-10.87,2.44c0,0-2.31-1.21-2.91-.43s0,7.68,0,7.68L78.62,58Z"/><path class="cls-2" d="M78.62,56.28l1.28-2.05s4,2.23,5.08,5.32l-2,1.36Z"/><path class="cls-3" d="M83.91,46.44C86,48.3,87.53,50.71,87,51.29s-3.06-1.24-3.06-1.24l.28,2.08s2.55,1.38,3.41-.6S83.91,46.44,83.91,46.44Z"/><path class="cls-4" d="M56.43,47.24C57.21,48.94,64.57,67,64.57,67s2.1-2.32,1.93,0l11.79-12.1s5.43,1.84,5.87,6.64c0,0-14.65,20.14-20,20.68S54.06,67.83,54.06,67.83Z"/><path class="cls-5" d="M56.43,47.24C57.21,48.94,64.57,67,64.57,67s2.1-2.32,1.93,0l11.79-12.1s5.43,1.84,5.87,6.64c0,0-14.65,20.14-20,20.68S54.06,67.83,54.06,67.83Z"/><path class="cls-4" d="M25.65,25a3.32,3.32,0,0,0,2.06-.84c.62-.76-1.41-7-1.41-7a6,6,0,0,0,2-4c0-2.34-1.52-3.54-3.93-3.4s-5.88,3.35-5.88,3.35l1.77.91s.57,5.3,1.32,6.66S25.65,25,25.65,25Z"/><path class="cls-4" d="M21,14.66c.7,3.31,3,11.47,3,11.47l2.08-2.37L25.09,13.55Z"/><path class="cls-6" d="M29.72,180.5l.92-5,5.66.82L36,181a4.54,4.54,0,0,1-4,2.13A2,2,0,0,1,29.72,180.5Z"/><polygon class="cls-6" points="54.95 177.34 54.77 181.38 55.85 184 60.52 182.52 61.54 179.53 61.88 174.88 54.95 177.34"/><path class="cls-6" d="M72.32,184.19c-1.44-.72-6-2.11-9.26-4.65a1.55,1.55,0,0,0-1.26-.31l-.25.05a4.1,4.1,0,0,1-2.79,2.92c-1.6.52-4-.82-4-.82l-.43,5.72H72.75a1.1,1.1,0,0,0,.5-.6S74.17,185.12,72.32,184.19Z"/><path class="cls-4" d="M55.86,86.44S58.7,122.71,59,126s3.76,52.4,3.76,52.4a16.08,16.08,0,0,1-9.06.39l-7.61-49.5-5-26.39-1.69-.47s-.57,32.14-.58,32-.73,43.15-.73,43.15c-4.22,2.14-10.09-.17-10.09-.17s-1.83-42-2.34-44.48S25,83.32,25,83.32Z"/><path class="cls-6" d="M56.72,96.28C50.5,98.44,36.42,101.65,25,97,25,94,25,90.11,25,88L56.2,90.75C56.34,92.56,56.52,93.77,56.72,96.28Z"/><path class="cls-7" d="M54.83,83.16c-.24-.89-.44-1.45-.44-1.45L26.84,82.84s-.1.56-.25,1.53c.13.19.25.33.25.33C39.13,89.72,48,89.72,54.83,83.16Z"/><path class="cls-4" d="M20.77,59.72,25.6,77.47,23.14,94.05s21.82,8.29,35.51-.64L55.84,56.35Z"/><path class="cls-4" d="M52.42,44.14c2.92,1.23,7,3.7,3.42,12.21L54.59,82.56s1.4,4,.51,4.9c-6.79,6.59-15.71,6.59-28,1.56a5.36,5.36,0,0,1-.73-1.16c-.45-1.78,1-6.75,1-6.75L20.52,59.72s-6.78-9.23-2.29-12.58C25.3,41.87,40.85,39.27,52.42,44.14Z"/><path class="cls-8" d="M58.65,93.41,57,71.9a42.43,42.43,0,0,0-7.41,12.59,52.41,52.41,0,0,1-18.4-15.94q2.68,7.2,5.38,14.39c-4.65-5.46-12-20.2-16.64-25.66L25.6,77.47,23.14,94.05S45,102.34,58.65,93.41Z"/><path class="cls-6" d="M44.38,41a12.54,12.54,0,0,1,3.21.18c.5.31,1.73,3.87,2,4.44s-3.3,3.88-3.3,3.88,2.93,4.81,2.8,5.19-5.31,21.4-5.31,21.4S31.17,57.29,30.91,56.35s1.21-5.76,1.21-5.76-3.73-2.75-4-3.35-.7-4.43,0-4.91a19,19,0,0,1,2.94-.87Z"/><path class="cls-2" d="M31.1,42.37h0L38.36,61.1C41,68,44,60.78,44,60.78L44.82,41l-.76-.07Z"/><path class="cls-9" d="M43.85,47.32c.78-.18.81-2.6.81-2.6l.16-3.66,0-.05-.73-.07L32.12,42.26c0,.14-.44,1.14-.35,1.42.69,2,2.92,5,3.37,5s1.86-1.44,2-1.94c.27.24.74,1,1,1.23.14,3.56,0,8.25,0,12.58L43,73l.45.58L43.89,63q-2-7.65-4-15.28c.43-.59,1-1,1.41-1.61A3.76,3.76,0,0,0,43.85,47.32Z"/><path class="cls-1" d="M41.09,43a12.65,12.65,0,0,1-4.85,1c-1.94,0-1.16-1.08-1.8-1.25L28.16,28.27l11.35,5.12,0,.48Z"/><path class="cls-3" d="M38,38.45a11.51,11.51,0,0,1-3.48-1,23.69,23.69,0,0,1-3.09-1.69l-3.24-7.47,11.35,5.12,0,.48.83,4.8C39.56,38.59,38.77,38.54,38,38.45Z"/><path class="cls-10" d="M44,60.78,40,47.15l1.76-2-3-1.84-2.29,2.12,2.14,1.89a126.3,126.3,0,0,0-.2,13.76l5.06,13.06Z"/><path class="cls-2" d="M32.85,39.08s4.56,4.37,5.73,4.18,1.78-4.59,1.78-4.59,4.16,1.19,4.67,1.78S44.3,46.73,43.75,47c-1.16.58-4.63-3.3-5.26-2.81s-2.43,3.81-3,3.74-5.28-4.69-5-6.4S32.85,39.08,32.85,39.08Z"/><path class="cls-1" d="M24.08,20.56s-3.92-.89-3.37,3.79,3.93,4.77,4.93,5c0,0,1.86,8.33,12.14,7.53s8.59-8.75,8.51-14S46.8,8.38,40.08,7.71,23.49,7.47,24.08,20.56Z"/><path class="cls-11" d="M35.08,27.8a10.82,10.82,0,0,0,6.46,1.44c-.64,1.69-1.31,2.85-3.8,2.46A3.14,3.14,0,0,1,35.08,27.8Z"/><path class="cls-2" d="M35,28.59a3.12,3.12,0,0,0,2.72,3.24,4,4,0,0,0,1.81-.17l.54-1.72L35.4,28.66A1.47,1.47,0,0,0,35,28.59Z"/><path class="cls-12" d="M35.32,28.87a4.75,4.75,0,0,0,2.31,1.42,9.24,9.24,0,0,0,2.22.33l.21-.68L36,28.81Z"/><path class="cls-2" d="M40.76,29.29a4.07,4.07,0,0,1-.31.77A7.68,7.68,0,0,1,35,28.78a2.65,2.65,0,0,1,.09-1A13.11,13.11,0,0,0,40.76,29.29Z"/><path class="cls-3" d="M39,27.94c0-.1.33-.19.5-.63a1.25,1.25,0,0,0,.07-.78,4.87,4.87,0,0,0-.39-1c-.72-1.55-1.16-2.88-1-3s.9,1.12,1.61,2.68a3.92,3.92,0,0,1,.4,1.24,1.9,1.9,0,0,1,0,.63,1.6,1.6,0,0,1-.24.49,1,1,0,0,1-.64.44C39.08,28,39,28,39,27.94Z"/><path class="cls-4" d="M36,19.59c-.06.08-.35,0-.81-.16a5.06,5.06,0,0,0-1.79-.17,4.87,4.87,0,0,0-1.71.51l-.52.25c-.12.06-.21.09-.25.05s0-.12.07-.25a2.32,2.32,0,0,1,.42-.47,3.63,3.63,0,0,1,1.94-.79,3.57,3.57,0,0,1,2,.41C35.84,19.24,36,19.51,36,19.59Z"/><path class="cls-4" d="M40,19.41c-.07-.06.08-.37.49-.72a3.58,3.58,0,0,1,4-.38,2.47,2.47,0,0,1,.51.38c.1.11.13.2.11.24s-.12,0-.26,0l-.55-.16a5,5,0,0,0-1.77-.17,5.07,5.07,0,0,0-1.73.51C40.29,19.31,40,19.48,40,19.41Z"/><path class="cls-13" d="M34.05,28.28a2.76,2.76,0,1,1-2.88-2.63A2.76,2.76,0,0,1,34.05,28.28Z"/><path class="cls-14" d="M46.51,27.71a2.75,2.75,0,1,1-2.88-2.63A2.75,2.75,0,0,1,46.51,27.71Z"/><path class="cls-4" d="M42.87,22.57A1.37,1.37,0,0,1,41.56,24a1.38,1.38,0,1,1,1.31-1.44Z"/><path class="cls-15" d="M22,22.65a5.81,5.81,0,0,0,.65,3.73,2.06,2.06,0,0,0,.63.94.69.69,0,0,0,1-.16c.16-.33-.08-.71-.26-1s-.29-.8,0-1c.14-.09.33-.09.49-.17.33-.17.33-.65.24-1a5.81,5.81,0,0,0-.56-1.45c-.24-.44-.63-.9-1.14-.89S22.19,22.14,22,22.65Z"/><path class="cls-6" d="M34.76,181.3a3,3,0,0,0-4.2-.33l-.84-.47c-1.23,1.83-3.58,4-3.88,5.11-.56,2,.44,4.43,3.73,4.43s6.31-2,6.66-3.56A35.29,35.29,0,0,0,36,181Z"/><path class="cls-16" d="M46.07,129.3l-.15-.78c1.66,5.81,4,13.65,4.39,13.67.66,0,7.25-1,7.54-1.89.13-.39.68-6.3,1.25-12.74.68,9.08,3.64,50.85,3.64,50.85a16.08,16.08,0,0,1-9.06.39Z"/><path class="cls-17" d="M28,177.39v-.3c0-.18,0-.45,0-.79a2.18,2.18,0,0,0,0-.25c0-.16,0-.32,0-.5v-.21q0-.6-.06-1.35v-.25c0-.28,0-.58,0-.89h0c0-.33,0-.68-.05-1v-.17c0-.88-.09-1.84-.13-2.86l0-.3c-.08-1.74-.16-3.65-.26-5.66v-.1c0-.76-.07-1.53-.11-2.3v-.08c-.31-6.43-.65-13.48-1-18.84v0c-.08-1.33-.15-2.57-.22-3.66,1.34,1,3.62,2.51,4.54,2.48,1.35,0,5.91-3.74,6.17-5.39.22-1.32,1.77-13.69,2.38-18.6-.15,8.67-.33,18.19-.33,18.1a1.23,1.23,0,0,0,0,.18v.08c0,.49,0,1.68-.06,3.36,0,.1,0,.2,0,.3q0,.93,0,2c0,.25,0,.49,0,.75,0,1,0,2.1-.06,3.26v.43c-.22,12.77-.55,32.78-.55,32.78a8.26,8.26,0,0,1-2.5.78l-.86.1c-.28,0-.57,0-.85,0l-.84,0-.81-.07-.77-.1-1.06-.2-.62-.15a15.82,15.82,0,0,1-1.78-.54Z"/><path class="cls-4" d="M24.08,20.56a6.19,6.19,0,0,1,2.06,3.81h1.18V19.84s3.58-1,2.22-6.25-6.69,0-6.69,0Z"/><path class="cls-1" d="M17.43,90c.62-1.31,1.29-2.58,2-3.82l1.29,1c1.39,1,2.34,1.75,2.52,1.85.87.48,4.39.34,4.58,2.67,0,0,1,1.15,1.86,2.25s-2.29,1.22-2.32,2.57-2.29.71-2.62,2.07-.39,1.25-1.53,1.29-2.28-.82-2.46-2.75A3.13,3.13,0,0,1,17.89,95l0-.2C17.6,93.13,19.21,91.39,17.43,90Z"/><path class="cls-2" d="M15.33,89.5l1.36,1.44A11.51,11.51,0,0,0,21,86.22l-1.53-1.91Z"/><path class="cls-4" d="M15,90.65c3.08-1.86,5.81-6.3,5.81-6.3L12.49,71.74,21.63,60l-3.4-12.85C12.73,51.71.37,68.45,0,72.92-.13,74.52,15,90.65,15,90.65Z"/><path class="cls-4" d="M34.31,12.25a9,9,0,0,1-8.62.59c-4.8-2.17-4.77-5.38-4.77-5.38a10.94,10.94,0,0,0,7-3.32c2.85-3.16,11.15-6.37,17.41-2s4.29,10.72.54,11.79S40,12.37,39.09,13,36.64,14.14,34.31,12.25Z"/><path class="cls-18" d="M47.69,4.23a10,10,0,0,0-1.38-1.39,43,43,0,0,1-24.6,6.83,6.89,6.89,0,0,0,.57.77,15.53,15.53,0,0,0-2.06,1.27,29.57,29.57,0,0,0,10.89.6A29.77,29.77,0,0,0,47.69,4.23Z"/><path class="cls-4" d="M36.29,23.07c-.07.08-.32,0-.7-.17a5.81,5.81,0,0,0-.68-.19,6.85,6.85,0,0,0-.84-.11,7.48,7.48,0,0,0-.85,0,4.91,4.91,0,0,0-.69.14c-.38.1-.66.2-.71.12s.09-.32.51-.57a2.67,2.67,0,0,1,.76-.32,3.52,3.52,0,0,1,1-.12,3.86,3.86,0,0,1,1,.19,3.1,3.1,0,0,1,.73.38C36.2,22.74,36.35,23,36.29,23.07Z"/></g></g></svg>